HIERARCHY
ROOT hip
{
  OFFSET -133.499 82.5643 73.7716
  CHANNELS 6 Xposition Yposition Zposition Zrotation Xrotation Yrotation
  JOINT abdomen
  {
    OFFSET 0 20.6881 -0.73152
    CHANNELS 3 Zrotation Xrotation Yrotation
    JOINT chest
    {
      OFFSET 0 11.7043 -0.48768
      CHANNELS 3 Zrotation Xrotation Yrotation
      JOINT neck
      {
        OFFSET 0 22.1894 -2.19456
        CHANNELS 3 Zrotation Xrotation Yrotation
        JOINT head
        {
          OFFSET -0.24384 7.07133 1.2192
          CHANNELS 3 Zrotation Xrotation Yrotation
          JOINT leftEye
          {
            OFFSET 4.14528 8.04674 8.04672
            CHANNELS 3 Zrotation Xrotation Yrotation
            End Site
            {
              OFFSET 1 0 0
            }
          }
          JOINT rightEye
          {
            OFFSET -3.6576 8.04674 8.04672
            CHANNELS 3 Zrotation Xrotation Yrotation
            End Site
            {
              OFFSET 1 0 0
            }
          }
        }
      }
      JOINT rCollar
      {
        OFFSET -2.68224 19.2634 -4.8768
        CHANNELS 3 Zrotation Xrotation Yrotation
        JOINT rShldr
        {
          OFFSET -8.77824 -1.95073 1.46304
          CHANNELS 3 Zrotation Xrotation Yrotation
          JOINT rForeArm
          {
            OFFSET -28.1742 -1.7115 0.48768
            CHANNELS 3 Zrotation Xrotation Yrotation
            JOINT rHand
            {
              OFFSET -22.5879 0.773209 7.07136
              CHANNELS 3 Zrotation Xrotation Yrotation
              JOINT rThumb1
              {
                OFFSET -1.2192 -0.487915 3.41376
                CHANNELS 3 Zrotation Xrotation Yrotation
                JOINT rThumb2
                {
                  OFFSET -3.37035 -0.52449 3.41376
                  CHANNELS 3 Zrotation Xrotation Yrotation
                  End Site
                  {
                    OFFSET -1.78271 -1.18214 1.43049
                  }
                }
              }
              JOINT rIndex1
              {
                OFFSET -7.75947 0.938293 5.60832
                CHANNELS 3 Zrotation Xrotation Yrotation
                JOINT rIndex2
                {
                  OFFSET -2.54057 -0.884171 1.56538
                  CHANNELS 3 Zrotation Xrotation Yrotation
                  End Site
                  {
                    OFFSET -1.62519 -0.234802 1.16502
                  }
                }
              }
              JOINT rMid1
              {
                OFFSET -8.24714 1.18213 3.41376
                CHANNELS 3 Zrotation Xrotation Yrotation
                JOINT rMid2
                {
                  OFFSET -3.10165 -0.590103 1.0647
                  CHANNELS 3 Zrotation Xrotation Yrotation
                  End Site
                  {
                    OFFSET -2.48547 -0.328903 0.83742
                  }
                }
              }
              JOINT rRing1
              {
                OFFSET -8.82822 0.546677 1.51678
                CHANNELS 3 Zrotation Xrotation Yrotation
                JOINT rRing2
                {
                  OFFSET -2.60934 -0.819778 -0.0198488
                  CHANNELS 3 Zrotation Xrotation Yrotation
                  End Site
                  {
                    OFFSET -2.33842 -0.294052 0.168128
                  }
                }
              }
              JOINT rPinky1
              {
                OFFSET -8.27202 -0.0477905 -0.4584
                CHANNELS 3 Zrotation Xrotation Yrotation
                JOINT rPinky2
                {
                  OFFSET -1.82734 -0.647385 -0.700984
                  CHANNELS 3 Zrotation Xrotation Yrotation
                  End Site
                  {
                    OFFSET -1.69225 -0.51767 -0.607171
                  }
                }
              }
            }
          }
        }
      }
      JOINT lCollar
      {
        OFFSET 2.68224 19.2634 -4.8768
        CHANNELS 3 Zrotation Xrotation Yrotation
        JOINT lShldr
        {
          OFFSET 8.77824 -1.95073 1.46304
          CHANNELS 3 Zrotation Xrotation Yrotation
          JOINT lForeArm
          {
            OFFSET 28.1742 -1.7115 0.48768
            CHANNELS 3 Zrotation Xrotation Yrotation
            JOINT lHand
            {
              OFFSET 22.5879 0.773209 7.07136
              CHANNELS 3 Zrotation Xrotation Yrotation
              JOINT lThumb1
              {
                OFFSET 1.2192 -0.487915 3.41376
                CHANNELS 3 Zrotation Xrotation Yrotation
                JOINT lThumb2
                {
                  OFFSET 3.37035 -0.52449 3.41376
                  CHANNELS 3 Zrotation Xrotation Yrotation
                  End Site
                  {
                    OFFSET 1.78271 -1.18214 1.43049
                  }
                }
              }
              JOINT lIndex1
              {
                OFFSET 7.75947 0.938293 5.60832
                CHANNELS 3 Zrotation Xrotation Yrotation
                JOINT lIndex2
                {
                  OFFSET 2.54057 -0.884171 1.56538
                  CHANNELS 3 Zrotation Xrotation Yrotation
                  End Site
                  {
                    OFFSET 1.62519 -0.234802 1.16502
                  }
                }
              }
              JOINT lMid1
              {
                OFFSET 8.24714 1.18213 3.41376
                CHANNELS 3 Zrotation Xrotation Yrotation
                JOINT lMid2
                {
                  OFFSET 3.10165 -0.590103 1.0647
                  CHANNELS 3 Zrotation Xrotation Yrotation
                  End Site
                  {
                    OFFSET 2.48547 -0.328903 0.83742
                  }
                }
              }
              JOINT lRing1
              {
                OFFSET 8.82822 0.546677 1.51678
                CHANNELS 3 Zrotation Xrotation Yrotation
                JOINT lRing2
                {
                  OFFSET 2.60934 -0.819778 -0.0198488
                  CHANNELS 3 Zrotation Xrotation Yrotation
                  End Site
                  {
                    OFFSET 2.33842 -0.294052 0.168128
                  }
                }
              }
              JOINT lPinky1
              {
                OFFSET 8.27202 -0.0477905 -0.4584
                CHANNELS 3 Zrotation Xrotation Yrotation
                JOINT lPinky2
                {
                  OFFSET 1.82734 -0.647385 -0.700984
                  CHANNELS 3 Zrotation Xrotation Yrotation
                  End Site
                  {
                    OFFSET 1.69225 -0.51767 -0.607171
                  }
                }
              }
            }
          }
        }
      }
    }
  }
  JOINT rButtock
  {
    OFFSET -8.77824 4.35084 1.2192
    CHANNELS 3 Zrotation Xrotation Yrotation
    JOINT rThigh
    {
      OFFSET 0 -1.70687 -2.19456
      CHANNELS 3 Zrotation Xrotation Yrotation
      JOINT rShin
      {
        OFFSET 0 -36.8199 0.73152
        CHANNELS 3 Zrotation Xrotation Yrotation
        JOINT rFoot
        {
          OFFSET 0.73152 -45.1104 -5.12064
          CHANNELS 3 Zrotation Xrotation Yrotation
          End Site
          {
            OFFSET -1.1221 -3.69964 12.103
          }
        }
      }
    }
  }
  JOINT lButtock
  {
    OFFSET 8.77824 4.35084 1.2192
    CHANNELS 3 Zrotation Xrotation Yrotation
    JOINT lThigh
    {
      OFFSET 0 -1.70687 -2.19456
      CHANNELS 3 Zrotation Xrotation Yrotation
      JOINT lShin
      {
        OFFSET 0 -36.8199 0.73152
        CHANNELS 3 Zrotation Xrotation Yrotation
        JOINT lFoot
        {
          OFFSET -0.73152 -45.1104 -5.12064
          CHANNELS 3 Zrotation Xrotation Yrotation
          End Site
          {
            OFFSET 1.1221 -3.69964 12.103
          }
        }
      }
    }
  }
}
MOTION
Frames:	9
Frame Time:	0.00833333
67.1312 85.0114 -141.909 -0.0194629 1.35391e-005 0.000335383 0.0256064 -6.19189e-006 0.000728838 0.00706477 8.63121e-006 0.00122382 -3.36962e-016 -7.95139e-016 -5.82377e-018 -1.00945e-015 3.18055e-015 -1.2424e-017 -0 0 0 -0 0 0 -1.50418e-016 3.88251e-019 1.49089e-016 -1.22377e-015 1.05604e-016 9.93923e-016 -5.74488e-014 1.96797e-014 -1.90833e-014 -6.98753e-013 -1.37161e-014 3.18055e-015 -1.64296e-012 1.0728e-014 -2.22639e-014 -2.8454e-012 1.27222e-014 -4.92986e-014 -1.63838e-012 1.31198e-014 -3.49861e-014 7.73091 5.47488 0.417314 -1.64345e-012 1.0635e-014 -2.22639e-014 2.90554 0.965183 0.102902 -1.63272e-012 1.12313e-014 -2.70347e-014 10.2786 0.731801 0.0259123 -1.64435e-012 9.54166e-015 -1.59028e-014 2.22167 -0.733487 -0.20892 -1.4777e-016 3.88251e-019 -1.49089e-016 -5.93811e-015 -9.31803e-017 -9.93923e-016 -6.17723e-014 -1.98785e-014 0 -6.96573e-013 1.09829e-014 -1.27222e-014 -1.64224e-012 -1.80954e-014 -2.22639e-014 -2.82712e-012 -3.18055e-014 -3.81667e-014 -1.64991e-012 -1.63003e-014 -1.90833e-014 -7.73091 5.47488 -0.417314 -1.64276e-012 -1.70955e-014 -1.90833e-014 -2.90554 0.965183 -0.102902 -1.65429e-012 -1.74931e-014 -2.38542e-014 -10.2786 0.731801 -0.0259123 -1.63997e-012 -1.86858e-014 -2.8625e-014 -2.22167 -0.733487 0.20892 -2.03217e-016 0 -3.88251e-019 0.512302 -3.13364 -0.0420886 -0.00562804 0.123099 -0.0495526 -0.492802 3.00963 0.11736 2.03217e-016 0 3.88251e-019 -0.473322 -3.03453 0.0397103 0.00592196 -0.0564349 0.0521748 0.492502 3.09005 -0.118955 
65.6286 83.826 -142.367 -0.777188 0.223153 -2.4472 1.14475 1.1005 1.94671 0.270559 -0.489281 0.558005 -2.28688 0.503173 -1.2125 2.41511 -0.0778048 -1.82922 -0 0 0 -0 0 0 1.88305e-014 3.28894e-015 7.48964e-014 21.2558 4.62293 1.88234 -4.97923 -2.43732 7.57806 0.0041477 1.45162 0.20379 -4.50112e-010 9.77473e-010 3.06455e-011 -7.776e-010 1.68916e-009 5.59861e-011 -4.50109e-010 9.77479e-010 3.06326e-011 7.73091 5.47488 0.417314 -4.50113e-010 9.77477e-010 3.06445e-011 2.90554 0.965183 0.102902 -4.50104e-010 9.77477e-010 3.06428e-011 10.2786 0.731801 0.0259123 -4.50114e-010 9.77475e-010 3.06548e-011 2.22167 -0.733487 -0.20892 1.87807e-014 3.28968e-015 7.46095e-014 -23.3681 1.48367 0.306632 2.54964 -0.95126 -4.17906 -0.0571801 5.30915 -0.734636 -3.82038e-010 -5.8054e-010 -3.80538e-011 -6.59087e-010 -1.00294e-009 -5.90844e-011 -3.82046e-010 -5.80538e-010 -3.80498e-011 -7.73091 5.47488 -0.417314 -3.82038e-010 -5.8054e-010 -3.80534e-011 -2.90554 0.965183 -0.102902 -3.8205e-010 -5.8054e-010 -3.80564e-011 -10.2786 0.731801 -0.0259123 -3.82037e-010 -5.80542e-010 -3.80632e-011 -2.22167 -0.733487 0.20892 -2.03217e-016 0 -3.88251e-019 2.06201 -0.358362 1.44415 0.00878319 7.7745 0.0847676 -0.459918 1.81784 1.2589 2.03217e-016 0 3.88251e-019 0.144874 -10.0505 -0.387349 0.0251224 7.02732 -0.00769942 0.517842 2.37535 1.00253 
65.8116 83.8295 -141.185 -1.57167 0.455456 -5.09231 2.27017 2.25325 4.05668 0.549104 -0.984212 1.1614 -4.6716 1.03878 -2.49633 4.94895 -0.176785 -3.76796 -0 0 0 -0 0 0 4.15177e-014 6.98122e-015 1.59851e-013 43.3704 9.53234 3.94103 -9.55736 -4.87885 15.6464 -0.00275204 2.95643 0.415498 -9.74357e-010 2.10259e-009 6.14183e-011 -1.68328e-009 3.63349e-009 1.12758e-010 -9.74356e-010 2.1026e-009 6.14052e-011 7.73091 5.47488 0.417314 -9.7436e-010 2.1026e-009 6.14161e-011 2.90554 0.965183 0.102902 -9.74352e-010 2.1026e-009 6.14177e-011 10.2786 0.731801 0.0259123 -9.7436e-010 2.1026e-009 6.14308e-011 2.22167 -0.733487 -0.20892 4.14092e-014 6.98275e-015 1.59574e-013 -48.0867 3.08271 0.623026 5.09998 -1.94284 -8.60962 0.0328304 10.9087 -1.53112 -8.27789e-010 -1.24569e-009 -1.03707e-010 -1.42851e-009 -2.15219e-009 -1.64729e-010 -8.27797e-010 -1.24569e-009 -1.03702e-010 -7.73091 5.47488 -0.417314 -8.27788e-010 -1.24569e-009 -1.0371e-010 -2.90554 0.965183 -0.102902 -8.27802e-010 -1.24569e-009 -1.03711e-010 -10.2786 0.731801 -0.0259123 -8.2779e-010 -1.24569e-009 -1.0372e-010 -2.22167 -0.733487 0.20892 -2.03217e-016 0 -3.88251e-019 3.5568 2.66159 3.0739 -0.01523 15.7177 0.233149 -0.368635 0.388527 2.44758 2.03217e-016 0 3.88251e-019 0.712021 -17.4662 -0.880896 0.0612131 14.4875 -0.0745214 0.578575 1.6159 2.26434 
66.0567 83.8983 -139.677 -2.23562 0.66455 -7.34272 3.15889 3.28626 5.84724 0.82608 -1.46731 1.67205 -6.79679 1.50682 -3.63863 7.23045 -0.232463 -5.48771 -0 0 0 -0 0 0 5.67923e-014 9.86605e-015 2.24391e-013 62.8346 13.808 5.79671 -13.0485 -6.80143 22.8836 -0.0186114 4.35463 0.612943 -1.34705e-009 2.9324e-009 9.19811e-011 -2.32711e-009 5.06746e-009 1.68057e-010 -1.34705e-009 2.93241e-009 9.19679e-011 7.73091 5.47488 0.417314 -1.34705e-009 2.93241e-009 9.1978e-011 2.90554 0.965183 0.102902 -1.34705e-009 2.93241e-009 9.19823e-011 10.2786 0.731801 0.0259123 -1.34705e-009 2.93241e-009 9.19962e-011 2.22167 -0.733487 -0.20892 5.66375e-014 9.86827e-015 2.24127e-013 -70.152 4.45048 0.922369 7.23591 -2.79312 -12.5506 0.250641 15.9168 -2.28199 -1.14283e-009 -1.74158e-009 -1.14117e-010 -1.97161e-009 -3.00877e-009 -1.77177e-010 -1.14284e-009 -1.74158e-009 -1.14111e-010 -7.73091 5.47488 -0.417314 -1.14283e-009 -1.74158e-009 -1.14122e-010 -2.90554 0.965183 -0.102902 -1.14284e-009 -1.74158e-009 -1.14122e-010 -10.2786 0.731801 -0.0259123 -1.14283e-009 -1.74159e-009 -1.14132e-010 -2.22167 -0.733487 0.20892 -2.03217e-016 0 -3.88251e-019 4.72882 5.1764 4.43453 -0.0773594 23.0769 0.381607 -0.251792 -0.563374 3.54056 2.03217e-016 0 3.88251e-019 1.04145 -24.0772 -1.34014 0.110153 21.1948 -0.136508 0.652439 0.94552 3.243 
66.2952 83.9557 -138.433 -2.61471 0.820683 -8.60595 3.62131 4.03598 6.83085 1.07963 -1.92136 1.95048 -8.31923 1.80859 -4.42601 8.89679 -0.181271 -6.65997 -0 0 0 -0 0 0 5.35351e-014 1.07322e-014 2.37896e-013 76.3739 16.5624 6.99165 -15.1499 -7.92079 27.8979 -0.0370617 5.48651 0.773468 -1.34086e-009 3.02391e-009 1.22019e-010 -2.31631e-009 5.22555e-009 2.19674e-010 -1.34086e-009 3.02392e-009 1.22006e-010 7.73091 5.47488 0.417314 -1.34086e-009 3.02392e-009 1.22016e-010 2.90554 0.965183 0.102902 -1.34085e-009 3.02392e-009 1.22021e-010 10.2786 0.731801 0.0259123 -1.34086e-009 3.02392e-009 1.22035e-010 2.22167 -0.733487 -0.20892 5.33649e-014 1.0735e-014 2.37647e-013 -85.551 5.24051 1.17664 8.62917 -3.34893 -15.2546 0.487949 19.4559 -2.84569 -1.13109e-009 -1.81434e-009 1.3581e-011 -1.94888e-009 -3.13368e-009 4.33669e-011 -1.1311e-009 -1.81434e-009 1.35873e-011 -7.73091 5.47488 -0.417314 -1.13109e-009 -1.81434e-009 1.35746e-011 -2.90554 0.965183 -0.102902 -1.13111e-009 -1.81434e-009 1.35762e-011 -10.2786 0.731801 -0.0259123 -1.1311e-009 -1.81435e-009 1.35651e-011 -2.22167 -0.733487 0.20892 -2.03217e-016 0 -3.88251e-019 5.44454 6.44934 5.09296 -0.157404 28.9763 0.506621 -0.202601 -0.326675 4.39233 2.03217e-016 0 3.88251e-019 1.04401 -28.6819 -1.61603 0.156213 26.0201 -0.176854 0.690246 0.497024 3.51518 
66.4705 83.9636 -137.608 -2.62687 0.935879 -8.3884 3.57533 4.38747 6.59867 1.30999 -2.37642 1.882 -9.04061 1.86402 -4.71391 9.73392 0.087008 -7.06033 -0 0 0 -0 0 0 1.77892e-014 7.69137e-015 1.62e-013 81.9372 17.2042 7.14732 -15.8331 -8.2406 29.6932 -0.0514491 6.31484 0.891271 -6.50461e-010 1.7926e-009 1.46197e-010 -1.12336e-009 3.09755e-009 2.5601e-010 -6.50462e-010 1.79261e-009 1.46186e-010 7.73091 5.47488 0.417314 -6.50466e-010 1.79261e-009 1.46195e-010 2.90554 0.965183 0.102902 -6.50459e-010 1.79261e-009 1.462e-010 10.2786 0.731801 0.0259123 -6.50466e-010 1.7926e-009 1.46211e-010 2.22167 -0.733487 -0.20892 1.7657e-014 7.6945e-015 1.61781e-013 -91.6203 5.16656 1.39425 9.10522 -3.53076 -16.2115 0.608407 20.9585 -3.09498 -5.38183e-010 -1.14675e-009 4.05011e-010 -9.19478e-010 -1.97826e-009 7.09613e-010 -5.38188e-010 -1.14674e-009 4.05018e-010 -7.73091 5.47488 -0.417314 -5.38179e-010 -1.14675e-009 4.05005e-010 -2.90554 0.965183 -0.102902 -5.38192e-010 -1.14675e-009 4.05007e-010 -10.2786 0.731801 -0.0259123 -5.38183e-010 -1.14675e-009 4.04998e-010 -2.22167 -0.733487 0.20892 -2.03217e-016 0 -3.88251e-019 5.68955 5.97207 4.66449 -0.222507 32.8464 0.578683 -0.317262 1.60424 4.9087 2.03217e-016 0 3.88251e-019 0.732487 -30.556 -1.54297 0.181056 28.2416 -0.178825 0.638876 0.407906 2.66958 
66.6279 83.912 -137.44 -2.38276 1.02118 -7.11773 3.18055 4.45612 5.50029 1.51664 -2.83041 1.56653 -9.19271 1.74469 -4.64496 9.9747 0.507392 -6.90989 -0 0 0 -0 0 0 -4.08513e-014 1.91123e-015 2.31025e-014 81.8496 16.3448 6.54197 -15.6109 -8.07868 29.1736 -0.0611273 6.92309 0.977893 5.21326e-010 -3.69816e-010 1.66435e-010 9.01328e-010 -6.39562e-010 2.81915e-010 5.21327e-010 -3.69808e-010 1.66426e-010 7.73091 5.47488 0.417314 5.21323e-010 -3.6981e-010 1.66434e-010 2.90554 0.965183 0.102902 5.2133e-010 -3.69809e-010 1.66436e-010 10.2786 0.731801 0.0259123 5.21322e-010 -3.69811e-010 1.66444e-010 2.22167 -0.733487 -0.20892 -4.09078e-014 1.9147e-015 2.29224e-014 -91.0175 4.47829 1.58375 8.95291 -3.45632 -15.9185 0.607461 21.0082 -3.10212 4.63965e-010 4.26335e-011 9.81469e-010 8.18752e-010 7.94809e-011 1.68853e-009 4.63961e-010 4.2635e-011 9.81477e-010 -7.73091 5.47488 -0.417314 4.63969e-010 4.26348e-011 9.81465e-010 -2.90554 0.965183 -0.102902 4.63958e-010 4.26333e-011 9.81468e-010 -10.2786 0.731801 -0.0259123 4.63967e-010 4.26341e-011 9.81462e-010 -2.22167 -0.733487 0.20892 -2.03217e-016 0 -3.88251e-019 5.5537 4.24102 3.46984 -0.263554 35.2663 0.605107 -0.5698 4.74176 5.19817 2.03217e-016 0 3.88251e-019 0.221735 -30.4763 -1.20466 0.186481 28.6018 -0.150979 0.529677 0.573024 1.03157 
66.7795 83.9563 -136.475 -2.01531 1.04623 -5.58329 2.61986 4.42896 4.18384 1.67841 -3.21792 1.18648 -9.08005 1.58001 -4.43626 9.92969 0.879997 -6.54795 -0 0 0 -0 0 0 -9.81789e-014 -3.23508e-015 -1.12276e-013 79.4621 14.9194 5.65959 -15.036 -7.733 27.7739 -0.0669804 7.3326 1.03627 1.63965e-009 -2.44193e-009 1.93294e-010 2.83363e-009 -4.22056e-009 3.19847e-010 1.63965e-009 -2.44193e-009 1.93288e-010 7.73091 5.47488 0.417314 1.63965e-009 -2.44193e-009 1.93296e-010 2.90554 0.965183 0.102902 1.63966e-009 -2.44193e-009 1.93295e-010 10.2786 0.731801 0.0259123 1.63965e-009 -2.44193e-009 1.933e-010 2.22167 -0.733487 -0.20892 -9.81609e-014 -3.23164e-015 -1.12427e-013 -87.7119 3.63313 1.71697 8.55266 -3.28165 -15.1371 0.554711 20.4567 -3.00811 1.4319e-009 1.20398e-009 1.51933e-009 2.4973e-009 2.08858e-009 2.60128e-009 1.4319e-009 1.20398e-009 1.51934e-009 -7.73091 5.47488 -0.417314 1.43191e-009 1.20398e-009 1.51933e-009 -2.90554 0.965183 -0.102902 1.4319e-009 1.20398e-009 1.51933e-009 -10.2786 0.731801 -0.0259123 1.43191e-009 1.20398e-009 1.51933e-009 -2.22167 -0.733487 0.20892 -2.03217e-016 0 -3.88251e-019 5.11635 2.03985 2.11359 -0.292125 37.0841 0.613321 -0.882926 8.30537 5.41437 2.03217e-016 0 3.88251e-019 -0.395374 -29.4946 -0.800563 0.1838 28.168 -0.111656 0.424562 0.759595 -0.717534 
66.9204 83.878 -135.497 -1.65078 0.981059 -4.57458 2.08514 4.4974 3.29696 1.7811 -3.47356 0.924527 -9.00894 1.49956 -4.30478 9.92113 1.00354 -6.31331 -0 0 0 -0 0 0 -1.29986e-013 -4.37443e-015 -1.77614e-013 78.183 13.8734 4.96264 -14.6766 -7.51353 26.9255 -0.0707031 7.56472 1.06943 2.16965e-009 -3.40235e-009 2.37339e-010 3.74942e-009 -5.88019e-009 3.92267e-010 2.16966e-009 -3.40235e-009 2.37333e-010 7.73091 5.47488 0.417314 2.16965e-009 -3.40235e-009 2.37343e-010 2.90554 0.965183 0.102902 2.16966e-009 -3.40235e-009 2.37339e-010 10.2786 0.731801 0.0259123 2.16965e-009 -3.40235e-009 2.37343e-010 2.22167 -0.733487 -0.20892 -1.29933e-013 -4.37171e-015 -1.77763e-013 -85.68 3.08833 1.76577 8.28819 -3.16416 -14.6282 0.525624 20.1553 -2.95689 1.92219e-009 1.78747e-009 1.79497e-009 3.34766e-009 3.09808e-009 3.06906e-009 1.92219e-009 1.78746e-009 1.79497e-009 -7.73091 5.47488 -0.417314 1.9222e-009 1.78747e-009 1.79497e-009 -2.90554 0.965183 -0.102902 1.92219e-009 1.78746e-009 1.79497e-009 -10.2786 0.731801 -0.0259123 1.9222e-009 1.78747e-009 1.79497e-009 -2.22167 -0.733487 0.20892 -2.03217e-016 0 -3.88251e-019 4.58495 0.16465 1.18288 -0.329044 39.1475 0.637303 -1.19178 11.5134 5.69754 2.03217e-016 0 3.88251e-019 -1.00184 -28.6648 -0.518508 0.183298 28.0075 -0.0788603 0.355362 0.734954 -1.89615 
